<svg width="25" height="25" viewBox="0 0 25 25" fill="none" xmlns="http://www.w3.org/2000/svg">
<path d="M10.2656 6.79492C10.3462 6.57728 10.6538 6.57728 10.7344 6.79492L12.4736 11.4932C12.6509 11.9718 13.0282 12.3491 13.5068 12.5264L18.2051 14.2656C18.4227 14.3462 18.4227 14.6538 18.2051 14.7344L13.5068 16.4736C13.0282 16.6509 12.6509 17.0282 12.4736 17.5068L10.7344 22.2051C10.6538 22.4227 10.3462 22.4227 10.2656 22.2051L8.52637 17.5068C8.3491 17.0282 7.97184 16.6509 7.49316 16.4736L2.79492 14.7344C2.57728 14.6538 2.57728 14.3462 2.79492 14.2656L7.49316 12.5264C7.97184 12.3491 8.3491 11.9718 8.52637 11.4932L10.2656 6.79492Z" stroke="white" stroke-width="1.5"/>
<path d="M18.7656 2.79492C18.8462 2.57728 19.1538 2.57728 19.2344 2.79492L19.7578 4.20801C19.9351 4.68696 20.313 5.06494 20.792 5.24219L22.2051 5.76562C22.4227 5.84617 22.4227 6.15383 22.2051 6.23438L20.792 6.75781C20.313 6.93506 19.9351 7.31304 19.7578 7.79199L19.2344 9.20508C19.1538 9.42272 18.8462 9.42272 18.7656 9.20508L18.2422 7.79199C18.0649 7.31304 17.687 6.93506 17.208 6.75781L15.7949 6.23438C15.5773 6.15383 15.5773 5.84617 15.7949 5.76562L17.208 5.24219C17.687 5.06494 18.0649 4.68696 18.2422 4.20801L18.7656 2.79492Z" stroke="white" stroke-width="1.5"/>
</svg>
