<svg width="17" height="24" viewBox="0 0 17 24" fill="none" xmlns="http://www.w3.org/2000/svg">
<path d="M8.39954 23.25C4.21525 23.2498 0.750122 19.6412 0.750121 15.0967C0.750156 11.588 2.72628 7.97862 4.80285 5.17578C5.83015 3.7892 6.85883 2.63022 7.63098 1.81836C7.93173 1.50215 8.19436 1.24069 8.40051 1.03809C8.60659 1.24063 8.86856 1.50241 9.16907 1.81836C9.94123 2.63023 10.9699 3.78916 11.9972 5.17578C14.0738 7.97862 16.0499 11.588 16.0499 15.0967C16.0499 19.6413 12.584 23.25 8.39954 23.25Z" stroke="white" stroke-width="1.5"/>
<path d="M4.79993 15.6V15.6C4.79993 17.588 6.41188 19.1996 8.39993 19.1996V19.1996" stroke="white" stroke-width="1.5" stroke-linecap="round"/>
</svg>
