<svg width="24" height="24" viewBox="0 0 24 24" fill="none" xmlns="http://www.w3.org/2000/svg">
<path d="M12.3997 23.25C8.21537 23.2498 4.75024 19.6412 4.75024 15.0967C4.75028 11.588 6.72641 7.97862 8.80298 5.17578C9.83028 3.7892 10.8589 2.63022 11.6311 1.81836C11.9319 1.50215 12.1945 1.24069 12.4006 1.03809C12.6067 1.24063 12.8687 1.50241 13.1692 1.81836C13.9414 2.63023 14.97 3.78916 15.9973 5.17578C18.0739 7.97862 20.05 11.588 20.05 15.0967C20.05 19.6413 16.5841 23.25 12.3997 23.25Z" stroke="white" stroke-width="1.5"/>
<path d="M8.80005 15.6001V15.6001C8.80005 17.5881 10.412 19.1998 12.4 19.1998V19.1998" stroke="white" stroke-width="1.5" stroke-linecap="round"/>
</svg>
