<svg width="24" height="24" viewBox="0 0 24 24" fill="none" xmlns="http://www.w3.org/2000/svg">
<circle cx="12" cy="12" r="10.25" stroke="white" stroke-width="1.5"/>
<path d="M8.51 16.14C8.02333 16.14 7.60333 16.0733 7.25 15.94C6.89667 15.8 6.60333 15.61 6.37 15.37C6.14333 15.1233 5.97333 14.8333 5.86 14.5C5.75333 14.16 5.7 13.7867 5.7 13.38V9.07H7.26V13.25C7.26 13.53 7.29 13.77 7.35 13.97C7.41667 14.1633 7.50333 14.3233 7.61 14.45C7.72333 14.57 7.85667 14.6567 8.01 14.71C8.17 14.7633 8.34333 14.79 8.53 14.79C8.91 14.79 9.21667 14.6733 9.45 14.44C9.69 14.2067 9.81 13.81 9.81 13.25V9.07H11.37V13.38C11.37 13.7867 11.3133 14.16 11.2 14.5C11.0867 14.84 10.9133 15.1333 10.68 15.38C10.4467 15.62 10.15 15.8067 9.79 15.94C9.43 16.0733 9.00333 16.14 8.51 16.14ZM14.9303 16C14.657 15.42 14.387 14.8167 14.1203 14.19C13.8536 13.5633 13.6003 12.9433 13.3603 12.33C13.1203 11.7167 12.897 11.13 12.6903 10.57C12.4903 10.01 12.317 9.51 12.1703 9.07H13.8903C14.0236 9.47 14.167 9.90333 14.3203 10.37C14.4803 10.83 14.6403 11.29 14.8003 11.75C14.967 12.21 15.127 12.65 15.2803 13.07C15.4336 13.49 15.577 13.8533 15.7103 14.16C15.837 13.8533 15.977 13.49 16.1303 13.07C16.2903 12.65 16.4503 12.21 16.6103 11.75C16.777 11.29 16.937 10.83 17.0903 10.37C17.2503 9.90333 17.397 9.47 17.5303 9.07H19.1903C19.037 9.51 18.8603 10.01 18.6603 10.57C18.4603 11.13 18.2403 11.7167 18.0003 12.33C17.7603 12.9433 17.507 13.5633 17.2403 14.19C16.9736 14.8167 16.7036 15.42 16.4303 16H14.9303Z" fill="white"/>
</svg>
