<svg width="22" height="22" viewBox="0 0 22 22" fill="none" xmlns="http://www.w3.org/2000/svg">
<circle cx="11" cy="11" r="10.25" stroke="white" stroke-width="1.5"/>
<path d="M7.51 15.14C7.02333 15.14 6.60333 15.0733 6.25 14.94C5.89667 14.8 5.60333 14.61 5.37 14.37C5.14333 14.1233 4.97333 13.8333 4.86 13.5C4.75333 13.16 4.7 12.7867 4.7 12.38V8.07H6.26V12.25C6.26 12.53 6.29 12.77 6.35 12.97C6.41667 13.1633 6.50333 13.3233 6.61 13.45C6.72333 13.57 6.85667 13.6567 7.01 13.71C7.17 13.7633 7.34333 13.79 7.53 13.79C7.91 13.79 8.21667 13.6733 8.45 13.44C8.69 13.2067 8.81 12.81 8.81 12.25V8.07H10.37V12.38C10.37 12.7867 10.3133 13.16 10.2 13.5C10.0867 13.84 9.91333 14.1333 9.68 14.38C9.44667 14.62 9.15 14.8067 8.79 14.94C8.43 15.0733 8.00333 15.14 7.51 15.14ZM13.9303 15C13.657 14.42 13.387 13.8167 13.1203 13.19C12.8536 12.5633 12.6003 11.9433 12.3603 11.33C12.1203 10.7167 11.897 10.13 11.6903 9.57C11.4903 9.01 11.317 8.51 11.1703 8.07H12.8903C13.0236 8.47 13.167 8.90333 13.3203 9.37C13.4803 9.83 13.6403 10.29 13.8003 10.75C13.967 11.21 14.127 11.65 14.2803 12.07C14.4336 12.49 14.577 12.8533 14.7103 13.16C14.837 12.8533 14.977 12.49 15.1303 12.07C15.2903 11.65 15.4503 11.21 15.6103 10.75C15.777 10.29 15.937 9.83 16.0903 9.37C16.2503 8.90333 16.397 8.47 16.5303 8.07H18.1903C18.037 8.51 17.8603 9.01 17.6603 9.57C17.4603 10.13 17.2403 10.7167 17.0003 11.33C16.7603 11.9433 16.507 12.5633 16.2403 13.19C15.9736 13.8167 15.7036 14.42 15.4303 15H13.9303Z" fill="white"/>
</svg>
