<svg width="24" height="24" viewBox="0 0 24 24" fill="none" xmlns="http://www.w3.org/2000/svg">
<path d="M14.4078 8.89907C14.0944 8.01395 14.0708 7.05206 14.3405 6.15266C14.6102 5.25325 15.1591 4.463 15.9078 3.89632C16.6564 3.32964 17.566 3.01592 18.5049 3.00059C19.4437 2.98526 20.3631 3.26911 21.1299 3.81105C21.8966 4.35299 22.471 5.12489 22.7699 6.01502C23.0688 6.90514 23.0767 7.86728 22.7924 8.76217C22.508 9.65705 21.9463 10.4382 21.1885 10.9926C20.4307 11.547 19.5161 11.8458 18.5771 11.8458H0" stroke="white" stroke-width="1.5"/>
<path d="M13.495 17.2056C13.2539 17.8493 13.2358 18.5489 13.4432 19.203C13.6507 19.8571 14.0729 20.4318 14.6488 20.844C15.2247 21.2561 15.9243 21.4843 16.6465 21.4954C17.3686 21.5066 18.0758 21.3001 18.6656 20.906C19.2554 20.5119 19.6973 19.9505 19.9272 19.3031C20.1571 18.6558 20.1631 17.956 19.9444 17.3052C19.7257 16.6544 19.2936 16.0862 18.7107 15.683C18.1278 15.2799 17.4243 15.0625 16.702 15.0625H0" stroke="white" stroke-width="1.5"/>
<path d="M6.3342 6.75396C6.13697 6.1907 6.12214 5.57858 6.29186 5.00624C6.46157 4.43389 6.80703 3.931 7.27821 3.57039C7.74938 3.20977 8.32184 3.01013 8.91269 3.00038C9.50355 2.99062 10.0821 3.17125 10.5647 3.51612C11.0473 3.86099 11.4088 4.35221 11.5969 4.91865C11.785 5.48509 11.7899 6.09736 11.611 6.66683C11.4321 7.2363 11.0785 7.73342 10.6016 8.08621C10.1247 8.439 9.54907 8.62916 8.95814 8.62916H0" stroke="white" stroke-width="1.5"/>
</svg>
