<svg width="25" height="22" viewBox="0 0 25 22" fill="none" xmlns="http://www.w3.org/2000/svg">
<path d="M15.0342 7.15568C14.7072 6.23207 14.6826 5.22836 14.964 4.28985C15.2454 3.35134 15.8182 2.52674 16.5994 1.93541C17.3806 1.34409 18.3298 1.01673 19.3094 1.00074C20.2891 0.984741 21.2484 1.28093 22.0485 1.84644C22.8487 2.41194 23.448 3.2174 23.7599 4.14623C24.0718 5.07505 24.08 6.07903 23.7833 7.01282C23.4867 7.94661 22.9005 8.76175 22.1097 9.34024C21.3189 9.91873 20.3646 10.2305 19.3848 10.2305H0" stroke="white" stroke-width="1.5"/>
<path d="M14.0817 15.8233C13.8302 16.495 13.8113 17.225 14.0277 17.9075C14.2442 18.5901 14.6848 19.1898 15.2857 19.6198C15.8866 20.0499 16.6167 20.288 17.3702 20.2996C18.1238 20.3112 18.8617 20.0958 19.4772 19.6845C20.0926 19.2733 20.5537 18.6875 20.7936 18.012C21.0335 17.3365 21.0398 16.6063 20.8116 15.9272C20.5834 15.2481 20.1325 14.6552 19.5242 14.2345C18.916 13.8138 18.1819 13.587 17.4282 13.587H0" stroke="white" stroke-width="1.5"/>
<path d="M6.6096 4.91729C6.4038 4.32954 6.38832 3.69082 6.56542 3.09359C6.74251 2.49635 7.10299 1.9716 7.59465 1.59531C8.08631 1.21901 8.68366 1.01069 9.3002 1.00051C9.91674 0.990334 10.5205 1.17882 11.024 1.53869C11.5276 1.89855 11.9048 2.41112 12.1011 3.00219C12.2974 3.59326 12.3025 4.23215 12.1158 4.82638C11.9291 5.42061 11.5602 5.93934 11.0625 6.30747C10.5649 6.6756 9.96425 6.87403 9.34762 6.87403H0" stroke="white" stroke-width="1.5"/>
</svg>
