<svg width="38" height="38" viewBox="0 0 38 38" fill="none" xmlns="http://www.w3.org/2000/svg">
<path d="M19 31C19.5523 31 20 31.4477 20 32V37C20 37.5523 19.5523 38 19 38C18.4477 38 18 37.5523 18 37V32C18 31.4477 18.4477 31 19 31Z" fill="#2B2A34"/>
<path d="M9.10059 27.4854C9.49111 27.0948 10.1241 27.0948 10.5146 27.4854C10.9052 27.8759 10.9052 28.5089 10.5146 28.8994L6.97949 32.4346C6.58897 32.8251 5.95595 32.8251 5.56543 32.4346C5.17491 32.044 5.17491 31.411 5.56543 31.0205L9.10059 27.4854Z" fill="#2B2A34"/>
<path d="M27.4854 27.4854C27.8759 27.0948 28.5089 27.0948 28.8994 27.4854L32.4346 31.0205C32.8251 31.411 32.8251 32.044 32.4346 32.4346C32.044 32.8251 31.411 32.8251 31.0205 32.4346L27.4854 28.8994C27.0948 28.5089 27.0948 27.8759 27.4854 27.4854Z" fill="#2B2A34"/>
<path fill-rule="evenodd" clip-rule="evenodd" d="M19 8.99512C24.5228 8.99512 29 13.4723 29 18.9951C29 24.518 24.5228 28.9951 19 28.9951C13.4772 28.9951 9 24.518 9 18.9951C9 13.4723 13.4772 8.99512 19 8.99512ZM19 10.9951C14.5817 10.9951 11 14.5768 11 18.9951C11 23.4134 14.5817 26.9951 19 26.9951C23.4183 26.9951 27 23.4134 27 18.9951C27 14.5768 23.4183 10.9951 19 10.9951Z" fill="#2B2A34"/>
<path d="M6 18C6.55228 18 7 18.4477 7 19C7 19.5523 6.55228 20 6 20H1C0.447715 20 -4.82823e-08 19.5523 0 19C4.82823e-08 18.4477 0.447715 18 1 18H6Z" fill="#2B2A34"/>
<path d="M37 18C37.5523 18 38 18.4477 38 19C38 19.5523 37.5523 20 37 20H32C31.4477 20 31 19.5523 31 19C31 18.4477 31.4477 18 32 18H37Z" fill="#2B2A34"/>
<path d="M5.56543 5.56543C5.95595 5.17491 6.58897 5.17491 6.97949 5.56543L10.5146 9.10059C10.9052 9.49111 10.9052 10.1241 10.5146 10.5146C10.1241 10.9052 9.49111 10.9052 9.10059 10.5146L5.56543 6.97949C5.17491 6.58897 5.17491 5.95595 5.56543 5.56543Z" fill="#2B2A34"/>
<path d="M31.0205 5.56543C31.411 5.17491 32.044 5.17491 32.4346 5.56543C32.8251 5.95595 32.8251 6.58897 32.4346 6.97949L28.8994 10.5146C28.5089 10.9052 27.8759 10.9052 27.4854 10.5146C27.0948 10.1241 27.0948 9.49111 27.4854 9.10059L31.0205 5.56543Z" fill="#2B2A34"/>
<path d="M19 0C19.5523 -2.41411e-08 20 0.447715 20 1V6C20 6.55228 19.5523 7 19 7C18.4477 7 18 6.55228 18 6V1C18 0.447715 18.4477 2.41411e-08 19 0Z" fill="#2B2A34"/>
</svg>
