<svg width="31" height="33" viewBox="0 0 31 33" fill="none" xmlns="http://www.w3.org/2000/svg">
<path d="M10 8.6042C10 6.49765 10.3975 4.48241 11.1201 2.62959C5.77775 4.75104 2.00005 9.9653 2 16.0622C2 24.0427 8.46966 30.5124 16.4502 30.5124L16.9541 30.5036C21.3542 30.3528 25.2529 28.2328 27.8027 24.9968C27.5111 25.0206 27.2175 25.0382 26.9219 25.0466L26.4502 25.0534C17.3653 25.0534 10.0002 17.6892 10 8.6042ZM12.0049 8.97725C12.203 16.7851 18.5945 23.0534 26.4502 23.0534L26.8652 23.0476C27.8302 23.0202 28.7708 22.8983 29.6787 22.6911C30.065 22.603 30.4666 22.7513 30.7031 23.069C30.9396 23.3868 30.9667 23.8142 30.7715 24.1589C28.0357 28.9882 22.9253 32.3004 17.0234 32.5026L16.4502 32.5124C7.36509 32.5124 0 25.1473 0 16.0622C5.45757e-05 8.23943 5.45974 1.69484 12.7754 0.0251017C13.1616 -0.0630504 13.5632 0.0852307 13.7998 0.403031C14.0363 0.720824 14.0634 1.14819 13.8682 1.49288C12.6794 3.59148 12 6.01716 12 8.6042L12.0049 8.97725Z" fill="#2B2A34"/>
</svg>
