<svg width="50" height="30" viewBox="0 0 50 30" fill="none" xmlns="http://www.w3.org/2000/svg">
<path fill-rule="evenodd" clip-rule="evenodd" d="M37.7871 0C42.3395 5.20926e-05 46.0425 3.62152 46.1797 8.14062C48.3392 8.4476 50 10.3035 50 12.5479C49.9999 15.0066 48.0066 16.9999 45.5479 17H39.1465C39.6929 18.1723 40 19.4788 40 20.8574C39.9998 25.9067 35.9068 30 30.8574 30C30.7633 30 30.6696 29.995 30.5762 29.9922C30.48 29.9966 30.3834 30 30.2861 30H6.28613C2.81463 30 0 27.1854 0 23.7139C0.000208243 20.5225 2.37892 17.8878 5.45996 17.4834C5.7306 11.0957 10.9929 6 17.4473 6C19.3924 6.00002 21.229 6.46347 22.8535 7.28516C22.849 7.28286 22.8444 7.28061 22.8398 7.27832C23.942 5.34896 26.0183 4.04801 28.3994 4.04785C29.1032 4.04785 29.7806 4.16218 30.4141 4.37207C31.8404 1.76675 34.6074 0 37.7871 0ZM17.4473 8C12.0696 8 7.68349 12.2463 7.45801 17.5684L7.38672 19.248L5.7207 19.4668C3.68697 19.7337 2.1019 21.4295 2.00488 23.5117L2 23.7139C2 26.0808 3.9192 28 6.28613 28H30.2861C30.3385 28 30.4001 27.998 30.4854 27.9941L30.5605 27.9912L30.6367 27.9932C30.7925 27.9979 30.8023 28 30.8574 28C34.679 28 37.799 24.9988 37.9902 21.2246L38 20.8574C38 17.0355 34.9986 13.9148 31.2246 13.7236L30.8574 13.7139C30.0624 13.7139 29.2991 13.846 28.584 14.0859L27.0059 14.6152L26.1982 13.1592C24.543 10.1745 21.4135 8.1308 17.7988 8.00586L17.4473 8ZM37.7871 2C35.3673 2 33.2576 3.34196 32.168 5.33203L31.3682 6.79492L29.7852 6.27051C29.3508 6.12658 28.8854 6.04785 28.3994 6.04785C26.7392 6.04801 25.2939 6.9676 24.5449 8.3252C25.9388 9.34995 27.1036 10.6682 27.9473 12.1895C28.8616 11.8826 29.8398 11.7139 30.8574 11.7139C33.6781 11.7139 36.1999 12.992 37.877 15H45.5479C46.8173 14.9999 47.8615 14.0351 47.9873 12.7988L48 12.5479C48 11.3139 47.0863 10.2901 45.8984 10.1211L44.2314 9.88379L44.1807 8.20117C44.0794 4.86582 41.4279 2.17297 38.1104 2.00781L37.7871 2Z" fill="#2B2A34"/>
</svg>
