<svg width="46" height="33" viewBox="0 0 46 33" fill="none" xmlns="http://www.w3.org/2000/svg">
<path d="M9.39648 29.9473L2.98828 32.9356L0 26.5274L6.4082 23.5391L9.39648 29.9473Z" fill="#2B2A34"/>
<path d="M25.3965 29.9473L18.9883 32.9356L16 26.5274L22.4082 23.5391L25.3965 29.9473Z" fill="#2B2A34"/>
<path d="M41.3965 29.9473L34.9883 32.9356L32 26.5274L38.4082 23.5391L41.3965 29.9473Z" fill="#2B2A34"/>
<path d="M18.9531 20.8203L15.1084 22.6133L13.3154 18.7686L17.1602 16.9756L18.9531 20.8203Z" fill="#2B2A34"/>
<path d="M33.9531 20.8203L30.1084 22.6133L28.3154 18.7686L32.1602 16.9756L33.9531 20.8203Z" fill="#2B2A34"/>
<path d="M11.9668 5.34278C12.1557 4.8238 12.73 4.55623 13.249 4.74512C13.7677 4.93409 14.0353 5.50757 13.8467 6.02637L8.37402 21.0615C8.18516 21.5804 7.61169 21.8479 7.09277 21.6592C6.57384 21.4703 6.30631 20.8969 6.49512 20.3779L11.9668 5.34278Z" fill="#2B2A34"/>
<path d="M27.9668 5.34278C28.1557 4.8238 28.73 4.55623 29.249 4.74512C29.7677 4.93409 30.0353 5.50757 29.8467 6.02637L24.374 21.0615C24.1852 21.5804 23.6117 21.8479 23.0928 21.6592C22.5738 21.4703 22.3063 20.8969 22.4951 20.3779L27.9668 5.34278Z" fill="#2B2A34"/>
<path d="M43.9668 5.34278C44.1557 4.8238 44.73 4.55623 45.249 4.74512C45.7677 4.93409 46.0353 5.50757 45.8467 6.02637L40.374 21.0615C40.1852 21.5804 39.6117 21.8479 39.0928 21.6592C38.5738 21.4703 38.3063 20.8969 38.4951 20.3779L43.9668 5.34278Z" fill="#2B2A34"/>
<path d="M22.0352 0.658211C22.2241 0.139378 22.7985 -0.128311 23.3174 0.0605546C23.8363 0.249486 24.1039 0.823838 23.915 1.34278L19.127 14.4981C18.9381 15.017 18.3637 15.2846 17.8447 15.0957C17.3259 14.9068 17.0583 14.3333 17.2471 13.8145L22.0352 0.658211Z" fill="#2B2A34"/>
<path d="M37.0352 0.658211C37.2241 0.139378 37.7985 -0.128311 38.3174 0.0605546C38.8363 0.249486 39.1039 0.823838 38.915 1.34278L34.127 14.4981C33.9381 15.017 33.3637 15.2846 32.8447 15.0957C32.3259 14.9068 32.0583 14.3333 32.2471 13.8145L37.0352 0.658211Z" fill="#2B2A34"/>
</svg>
