<svg width="35" height="32" viewBox="0 0 35 32" fill="none" xmlns="http://www.w3.org/2000/svg">
<path d="M22.3965 28.9472L15.9883 31.9355L13 25.5273L19.4082 22.539L22.3965 28.9472Z" fill="#2B2A34"/>
<path d="M5.9541 23.0009L2.10938 24.7939L0.316406 20.9491L4.16113 19.1562L5.9541 23.0009Z" fill="#2B2A34"/>
<path d="M30.9541 23.0009L27.1094 24.7939L25.3164 20.9491L29.1611 19.1562L30.9541 23.0009Z" fill="#2B2A34"/>
<path d="M24.9668 4.34268C25.1557 3.82371 25.73 3.55613 26.249 3.74503C26.7677 3.93402 27.0354 4.50745 26.8467 5.02628L21.374 20.0614C21.1852 20.5803 20.6117 20.8478 20.0928 20.6591C19.5739 20.4702 19.3064 19.8968 19.4951 19.3778L24.9668 4.34268Z" fill="#2B2A34"/>
<path d="M15.9541 18.0009L12.1094 19.7939L10.3164 15.9491L14.1611 14.1562L15.9541 18.0009Z" fill="#2B2A34"/>
<path d="M8.00977 5.65811C8.19872 5.13941 8.7722 4.8718 9.29102 5.06046C9.80999 5.24935 10.0776 5.82371 9.88867 6.34268L6.12695 16.6786C5.93806 17.1976 5.3637 17.4652 4.84473 17.2763C4.32604 17.0873 4.05832 16.5138 4.24707 15.995L8.00977 5.65811Z" fill="#2B2A34"/>
<path d="M33.0098 5.65811C33.1987 5.13941 33.7722 4.8718 34.291 5.06046C34.81 5.24935 35.0776 5.82371 34.8887 6.34268L31.127 16.6786C30.9381 17.1976 30.3637 17.4652 29.8447 17.2763C29.326 17.0873 29.0583 16.5138 29.2471 15.995L33.0098 5.65811Z" fill="#2B2A34"/>
<path d="M18.0098 0.658113C18.1987 0.139408 18.7722 -0.128199 19.291 0.0604567C19.81 0.249349 20.0776 0.823705 19.8887 1.34268L16.127 11.6786C15.9381 12.1976 15.3637 12.4652 14.8447 12.2763C14.326 12.0873 14.0583 11.5138 14.2471 10.995L18.0098 0.658113Z" fill="#2B2A34"/>
</svg>
