<svg width="26" height="29" viewBox="0 0 26 29" fill="none" xmlns="http://www.w3.org/2000/svg">
<path d="M6.12681 16.6789C5.93792 17.1979 5.36407 17.4655 4.8451 17.2766C4.32612 17.0877 4.05853 16.5138 4.24742 15.9949L8.00965 5.65825C8.19854 5.13927 8.77238 4.87169 9.29136 5.06058C9.81034 5.24947 10.0779 5.82331 9.88903 6.34229L6.12681 16.6789Z" fill="#2B2A34"/>
<path d="M0.315918 20.949L4.16106 19.156L5.95407 23.0011L2.10894 24.7941L0.315918 20.949Z" fill="#2B2A34"/>
<path d="M16.1268 11.6789C15.9379 12.1979 15.3641 12.4655 14.8451 12.2766C14.3261 12.0877 14.0585 11.5138 14.2474 10.9949L18.0096 0.658252C18.1985 0.139274 18.7724 -0.128313 19.2914 0.0605795C19.8103 0.249472 20.0779 0.823314 19.889 1.34229L16.1268 11.6789Z" fill="#2B2A34"/>
<path d="M10.3159 15.949L14.1611 14.156L15.9541 18.0011L12.1089 19.7941L10.3159 15.949Z" fill="#2B2A34"/>
<path d="M22.1268 20.6789C21.9379 21.1979 21.3641 21.4655 20.8451 21.2766C20.3261 21.0877 20.0585 20.5138 20.2474 19.9949L24.0096 9.65825C24.1985 9.13927 24.7724 8.87169 25.2914 9.06058C25.8103 9.24947 26.0779 9.82331 25.889 10.3423L22.1268 20.6789Z" fill="#2B2A34"/>
<path d="M16.3159 24.949L20.1611 23.156L21.9541 27.0011L18.1089 28.7941L16.3159 24.949Z" fill="#2B2A34"/>
</svg>
