<svg width="50" height="35" viewBox="0 0 50 35" fill="none" xmlns="http://www.w3.org/2000/svg">
<path fill-rule="evenodd" clip-rule="evenodd" d="M33.9463 7.82324C38.5349 8.05572 42.1836 11.8498 42.1836 16.4961L42.1729 16.9424C42.0562 19.2453 41.0421 21.3108 39.4736 22.7979C39.8134 23.7547 40 24.7842 40 25.8574C39.9998 30.9067 35.9068 35 30.8574 35C30.7633 35 30.6696 34.995 30.5762 34.9922C30.48 34.9966 30.3834 35 30.2861 35H6.28613C2.81463 35 0 32.1854 0 28.7139C0.000208243 25.5225 2.37892 22.8878 5.45996 22.4834C5.7306 16.0957 10.9929 11 17.4473 11C20.5367 11 23.353 12.1678 25.4795 14.0859C25.3953 14.0099 25.31 13.935 25.2236 13.8613C26.3394 10.3534 29.6226 7.81168 33.5 7.81152L33.9463 7.82324ZM17.4473 13C12.0696 13 7.68349 17.2463 7.45801 22.5684L7.38672 24.248L5.7207 24.4668C3.62153 24.7423 2.00021 26.5401 2 28.7139C2 31.0808 3.9192 33 6.28613 33H30.2861C30.3385 33 30.4001 32.998 30.4854 32.9941L30.5605 32.9912L30.6367 32.9932C30.7925 32.9979 30.8023 33 30.8574 33C34.8021 33 37.9999 29.8022 38 25.8574C38 21.9123 34.802 18.7139 30.8574 18.7139C30.0624 18.7139 29.2991 18.846 28.584 19.0859L27.0059 19.6152L26.1982 18.1592C24.4895 15.0782 21.2099 13.0001 17.4473 13ZM33.5 9.81152C30.118 9.8117 27.3239 12.3241 26.8789 15.584C27.2759 16.0883 27.634 16.6246 27.9473 17.1895C28.8616 16.8826 29.8398 16.7139 30.8574 16.7139C34.075 16.7139 36.9019 18.3779 38.5312 20.8906C39.5584 19.7155 40.1835 18.1795 40.1836 16.4961C40.1836 12.8046 37.1914 9.81172 33.5 9.81152Z" fill="#2B2A34"/>
<path d="M40.7764 23.9619C41.1669 23.5715 41.7999 23.5715 42.1904 23.9619L45.0742 26.8457C45.4647 27.2362 45.4647 27.8702 45.0742 28.2607C44.6837 28.6508 44.0506 28.651 43.6602 28.2607L40.7764 25.376C40.386 24.9854 40.3859 24.3524 40.7764 23.9619Z" fill="#2B2A34"/>
<path d="M49 15.3682C49.5521 15.3682 49.9999 15.816 50 16.3682C50 16.9204 49.5522 17.3681 49 17.3682H44.9209C44.3687 17.368 43.9209 16.9204 43.9209 16.3682C43.921 15.8161 44.3688 15.3683 44.9209 15.3682H49Z" fill="#2B2A34"/>
<path d="M21.7402 4.92578C22.1307 4.53544 22.7638 4.53541 23.1543 4.92578L26.0381 7.80957C26.4286 8.20009 26.4286 8.83409 26.0381 9.22461C25.6476 9.61475 25.0144 9.61491 24.624 9.22461L21.7402 6.33984C21.3498 5.94931 21.3497 5.31627 21.7402 4.92578Z" fill="#2B2A34"/>
<path d="M43.6602 4.73926C44.0507 4.34884 44.6847 4.34877 45.0752 4.73926C45.4655 5.1296 45.4651 5.76277 45.0752 6.15332L42.1904 9.03809C41.7999 9.42859 41.1669 9.42856 40.7764 9.03809C40.3858 8.64756 40.3858 8.01455 40.7764 7.62402L43.6602 4.73926Z" fill="#2B2A34"/>
<path d="M33.3691 0C33.9213 0.000137276 34.3691 0.447871 34.3691 1V5.0791C34.369 5.63122 33.9212 6.07896 33.3691 6.0791C32.8169 6.0791 32.3692 5.6313 32.3691 5.0791V1C32.3692 0.447786 32.8169 2.09627e-08 33.3691 0Z" fill="#2B2A34"/>
</svg>
