<svg width="40" height="24" viewBox="0 0 40 24" fill="none" xmlns="http://www.w3.org/2000/svg">
<path fill-rule="evenodd" clip-rule="evenodd" d="M17.4473 0C21.9664 5.09605e-05 25.9006 2.49889 27.9473 6.18945C28.8616 5.88261 29.8398 5.71387 30.8574 5.71387C35.9069 5.7139 40 9.80798 40 14.8574C39.9998 19.9067 35.9068 24 30.8574 24C30.7633 24 30.6696 23.995 30.5762 23.9922C30.48 23.9966 30.3834 24 30.2861 24H6.28613C2.81463 24 0 21.1854 0 17.7139C0.000208243 14.5225 2.37892 11.8878 5.45996 11.4834C5.7306 5.09566 10.9929 0 17.4473 0ZM17.4473 2C12.0696 2 7.68349 6.24631 7.45801 11.5684L7.38672 13.248L5.7207 13.4668C3.62153 13.7423 2.00021 15.5401 2 17.7139C2 20.0808 3.9192 22 6.28613 22H30.2861C30.3385 22 30.4001 21.998 30.4854 21.9941L30.5605 21.9912L30.6367 21.9932C30.7925 21.9979 30.8023 22 30.8574 22C34.8021 22 37.9999 18.8022 38 14.8574C38 10.9123 34.802 7.7139 30.8574 7.71387C30.0624 7.71387 29.2991 7.84596 28.584 8.08594L27.0059 8.61523L26.1982 7.15918C24.4895 4.07818 21.2099 2.00005 17.4473 2Z" fill="#2B2A34"/>
</svg>
