<svg width="51" height="36" viewBox="0 0 51 36" fill="none" xmlns="http://www.w3.org/2000/svg">
<path fill-rule="evenodd" clip-rule="evenodd" d="M36.3232 0.0262185C36.7078 -0.0640024 37.1098 0.0807351 37.3486 0.395359C37.5873 0.71003 37.6181 1.13623 37.4277 1.48227C36.4945 3.17791 35.958 5.1377 35.958 7.23032L35.9727 7.83286C36.2769 14.0161 41.2363 18.8883 47.2529 18.8885C48.1174 18.8885 48.959 18.7872 49.7676 18.5975C50.1521 18.5073 50.5542 18.652 50.793 18.9666C51.0317 19.2813 51.0625 19.7075 50.8721 20.0536C48.7042 23.992 44.6783 26.7283 39.9961 26.9784C39.9312 31.9719 35.8664 35.9998 30.8574 35.9999C30.7633 35.9999 30.6696 35.9949 30.5762 35.992C30.48 35.9964 30.3834 35.9998 30.2861 35.9999H6.28613C2.81463 35.9999 0 33.1852 0 29.7137C0.000260363 26.5224 2.37895 23.8876 5.45996 23.4832C5.73065 17.0956 10.993 11.9999 17.4473 11.9999C20.9094 11.9999 24.027 13.4678 26.2168 15.8133C26.0738 15.011 26 14.1843 26 13.3407C26.0003 6.86496 30.3936 1.4177 36.3232 0.0262185ZM17.4473 13.9999C12.0696 13.9999 7.68355 18.2462 7.45801 23.5682L7.38672 25.2479L5.7207 25.4666C3.62157 25.7422 2.00026 27.54 2 29.7137C2 32.0807 3.9192 33.9999 6.28613 33.9999H30.2861C30.3385 33.9998 30.4001 33.9979 30.4854 33.994L30.5605 33.9911L30.6367 33.993C30.7925 33.9977 30.8023 33.9999 30.8574 33.9999C34.8021 33.9998 37.9999 30.8021 38 26.8573C37.9999 22.9122 34.802 19.7137 30.8574 19.7137C30.0624 19.7137 29.2991 19.8458 28.584 20.0858L27.0059 20.6151L26.1982 19.159C24.4895 16.0781 21.2099 13.9999 17.4473 13.9999ZM28.9053 17.9247C29.5342 17.7871 30.1873 17.7137 30.8574 17.7137C35.2652 17.7137 38.9437 20.8336 39.8076 24.9852C43.0488 24.8354 45.9405 23.2751 47.9131 20.87C47.6943 20.8811 47.4743 20.8885 47.2529 20.8885C39.8832 20.8882 33.9581 14.7459 33.958 7.23032C33.958 5.63666 34.2267 4.10642 34.7168 2.68344C30.7711 4.49257 28.0003 8.57179 28 13.3407C28 14.9704 28.3228 16.5195 28.9053 17.9247Z" fill="#2B2A34"/>
</svg>
