<svg width="40" height="37" viewBox="0 0 40 37" fill="none" xmlns="http://www.w3.org/2000/svg">
<path d="M9.05176 32.6836C9.22652 32.1598 9.79256 31.8771 10.3164 32.0518C10.8402 32.2265 11.1229 32.7926 10.9482 33.3164L9.94824 36.3164C9.77348 36.8402 9.20744 37.1229 8.68359 36.9482C8.15984 36.7735 7.87714 36.2074 8.05176 35.6836L9.05176 32.6836Z" fill="#2B2A34"/>
<path d="M15.0518 32.6836C15.2265 32.1598 15.7926 31.8771 16.3164 32.0518C16.8402 32.2265 17.1229 32.7926 16.9482 33.3164L15.9482 36.3164C15.7735 36.8402 15.2074 37.1229 14.6836 36.9482C14.1598 36.7735 13.8771 36.2074 14.0518 35.6836L15.0518 32.6836Z" fill="#2B2A34"/>
<path d="M21.0518 32.6836C21.2265 32.1598 21.7926 31.8771 22.3164 32.0518C22.8402 32.2265 23.1229 32.7926 22.9482 33.3164L21.9482 36.3164C21.7735 36.8402 21.2074 37.1229 20.6836 36.9482C20.1598 36.7735 19.8771 36.2074 20.0518 35.6836L21.0518 32.6836Z" fill="#2B2A34"/>
<path d="M27.0518 32.6836C27.2265 32.1598 27.7926 31.8771 28.3164 32.0518C28.8402 32.2265 29.1229 32.7926 28.9482 33.3164L27.9482 36.3164C27.7735 36.8402 27.2074 37.1229 26.6836 36.9482C26.1598 36.7735 25.8771 36.2074 26.0518 35.6836L27.0518 32.6836Z" fill="#2B2A34"/>
<path d="M7.05176 26.6836C7.22652 26.1598 7.79256 25.8771 8.31641 26.0518C8.84016 26.2265 9.12286 26.7926 8.94824 27.3164L7.94824 30.3164C7.77348 30.8402 7.20744 31.1229 6.68359 30.9482C6.15984 30.7735 5.87714 30.2074 6.05176 29.6836L7.05176 26.6836Z" fill="#2B2A34"/>
<path d="M13.0518 26.6836C13.2265 26.1598 13.7926 25.8771 14.3164 26.0518C14.8402 26.2265 15.1229 26.7926 14.9482 27.3164L13.9482 30.3164C13.7735 30.8402 13.2074 31.1229 12.6836 30.9482C12.1598 30.7735 11.8771 30.2074 12.0518 29.6836L13.0518 26.6836Z" fill="#2B2A34"/>
<path d="M19.0518 26.6836C19.2265 26.1598 19.7926 25.8771 20.3164 26.0518C20.8402 26.2265 21.1229 26.7926 20.9482 27.3164L19.9482 30.3164C19.7735 30.8402 19.2074 31.1229 18.6836 30.9482C18.1598 30.7735 17.8771 30.2074 18.0518 29.6836L19.0518 26.6836Z" fill="#2B2A34"/>
<path d="M25.0518 26.6836C25.2265 26.1598 25.7926 25.8771 26.3164 26.0518C26.8402 26.2265 27.1229 26.7926 26.9482 27.3164L25.9482 30.3164C25.7735 30.8402 25.2074 31.1229 24.6836 30.9482C24.1598 30.7735 23.8771 30.2074 24.0518 29.6836L25.0518 26.6836Z" fill="#2B2A34"/>
<path d="M31.0518 26.6836C31.2265 26.1598 31.7926 25.8771 32.3164 26.0518C32.8402 26.2265 33.1229 26.7926 32.9482 27.3164L31.9482 30.3164C31.7735 30.8402 31.2074 31.1229 30.6836 30.9482C30.1598 30.7735 29.8771 30.2074 30.0518 29.6836L31.0518 26.6836Z" fill="#2B2A34"/>
<path fill-rule="evenodd" clip-rule="evenodd" d="M17.4473 0C21.9664 5.09605e-05 25.9006 2.49889 27.9473 6.18945C28.8616 5.88261 29.8398 5.71387 30.8574 5.71387C35.9069 5.7139 40 9.80798 40 14.8574C39.9998 19.9067 35.9068 24 30.8574 24C30.7633 24 30.6696 23.995 30.5762 23.9922C30.48 23.9966 30.3834 24 30.2861 24H6.28613C2.81463 24 0 21.1854 0 17.7139C0.000208243 14.5225 2.37892 11.8878 5.45996 11.4834C5.7306 5.09566 10.9929 0 17.4473 0ZM17.4473 2C12.0696 2 7.68349 6.24631 7.45801 11.5684L7.38672 13.248L5.7207 13.4668C3.62153 13.7423 2.00021 15.5401 2 17.7139C2 20.0808 3.9192 22 6.28613 22H30.2861C30.3385 22 30.4001 21.998 30.4854 21.9941L30.5605 21.9912L30.6367 21.9932C30.7925 21.9979 30.8023 22 30.8574 22C34.8021 22 37.9999 18.8022 38 14.8574C38 10.9123 34.802 7.7139 30.8574 7.71387C30.0624 7.71387 29.2991 7.84596 28.584 8.08594L27.0059 8.61523L26.1982 7.15918C24.4895 4.07818 21.2099 2.00005 17.4473 2Z" fill="#2B2A34"/>
</svg>
