<svg width="40" height="31" viewBox="0 0 40 31" fill="none" xmlns="http://www.w3.org/2000/svg">
<path d="M7.05176 26.6836C7.22652 26.1598 7.79256 25.8771 8.31641 26.0518C8.84016 26.2265 9.12286 26.7926 8.94824 27.3164L7.94824 30.3164C7.77348 30.8402 7.20744 31.1229 6.68359 30.9482C6.15984 30.7735 5.87714 30.2074 6.05176 29.6836L7.05176 26.6836Z" fill="#2B2A34"/>
<path d="M13.0518 26.6836C13.2265 26.1598 13.7926 25.8771 14.3164 26.0518C14.8402 26.2265 15.1229 26.7926 14.9482 27.3164L13.9482 30.3164C13.7735 30.8402 13.2074 31.1229 12.6836 30.9482C12.1598 30.7735 11.8771 30.2074 12.0518 29.6836L13.0518 26.6836Z" fill="#2B2A34"/>
<path d="M19.0518 26.6836C19.2265 26.1598 19.7926 25.8771 20.3164 26.0518C20.8402 26.2265 21.1229 26.7926 20.9482 27.3164L19.9482 30.3164C19.7735 30.8402 19.2074 31.1229 18.6836 30.9482C18.1598 30.7735 17.8771 30.2074 18.0518 29.6836L19.0518 26.6836Z" fill="#2B2A34"/>
<path d="M25.0518 26.6836C25.2265 26.1598 25.7926 25.8771 26.3164 26.0518C26.8402 26.2265 27.1229 26.7926 26.9482 27.3164L25.9482 30.3164C25.7735 30.8402 25.2074 31.1229 24.6836 30.9482C24.1598 30.7735 23.8771 30.2074 24.0518 29.6836L25.0518 26.6836Z" fill="#2B2A34"/>
<path d="M31.0518 26.6836C31.2265 26.1598 31.7926 25.8771 32.3164 26.0518C32.8402 26.2265 33.1229 26.7926 32.9482 27.3164L31.9482 30.3164C31.7735 30.8402 31.2074 31.1229 30.6836 30.9482C30.1598 30.7735 29.8771 30.2074 30.0518 29.6836L31.0518 26.6836Z" fill="#2B2A34"/>
<path fill-rule="evenodd" clip-rule="evenodd" d="M17.4473 0C21.9664 5.09605e-05 25.9006 2.49889 27.9473 6.18945C28.8616 5.88261 29.8398 5.71387 30.8574 5.71387C35.9069 5.7139 40 9.80798 40 14.8574C39.9998 19.9067 35.9068 24 30.8574 24C30.7633 24 30.6696 23.995 30.5762 23.9922C30.48 23.9966 30.3834 24 30.2861 24H6.28613C2.81463 24 0 21.1854 0 17.7139C0.000208243 14.5225 2.37892 11.8878 5.45996 11.4834C5.7306 5.09566 10.9929 0 17.4473 0ZM17.4473 2C12.0696 2 7.68349 6.24631 7.45801 11.5684L7.38672 13.248L5.7207 13.4668C3.68697 13.7337 2.1019 15.4295 2.00488 17.5117L2 17.7139C2 20.0808 3.9192 22 6.28613 22H30.2861C30.3385 22 30.4001 21.998 30.4854 21.9941L30.5605 21.9912L30.6367 21.9932C30.7925 21.9979 30.8023 22 30.8574 22C34.679 22 37.799 18.9988 37.9902 15.2246L38 14.8574C38 11.0355 34.9986 7.91483 31.2246 7.72363L30.8574 7.71387C30.0624 7.71387 29.2991 7.84596 28.584 8.08594L27.0059 8.61523L26.1982 7.15918C24.543 4.17454 21.4135 2.1308 17.7988 2.00586L17.4473 2Z" fill="#2B2A34"/>
</svg>
