<svg width="40" height="35" viewBox="0 0 40 35" fill="none" xmlns="http://www.w3.org/2000/svg">
<path d="M8.56738 26.5C8.84348 26.022 9.45444 25.858 9.93262 26.1338C10.4109 26.4099 10.575 27.0217 10.2988 27.5L9.35352 29.1367H11.25C11.8022 29.1367 12.2499 29.5845 12.25 30.1367C12.25 30.689 11.8023 31.1367 11.25 31.1367H9.34863L10.2988 32.7832C10.575 33.2615 10.4109 33.8733 9.93262 34.1494C9.45437 34.4253 8.84347 34.2614 8.56738 33.7832L7.61914 32.1406L6.67383 33.7783C6.39769 34.2566 5.78591 34.4207 5.30762 34.1445C4.82967 33.8683 4.66633 33.2565 4.94238 32.7783L5.89062 31.1367H4C3.44772 31.1367 3 30.689 3 30.1367C3.00007 29.5845 3.44776 29.1367 4 29.1367H5.88477L4.94238 27.5049C4.66631 27.0267 4.82955 26.4149 5.30762 26.1387C5.78586 25.8626 6.39764 26.0267 6.67383 26.5049L7.61914 28.1416L8.56738 26.5Z" fill="#2B2A34"/>
<path d="M20.5674 26.5C20.8435 26.022 21.4544 25.858 21.9326 26.1338C22.4109 26.4099 22.575 27.0217 22.2988 27.5L21.3535 29.1367H23.25C23.8022 29.1367 24.2499 29.5845 24.25 30.1367C24.25 30.689 23.8023 31.1367 23.25 31.1367H21.3486L22.2988 32.7832C22.575 33.2615 22.4109 33.8733 21.9326 34.1494C21.4544 34.4253 20.8435 34.2614 20.5674 33.7832L19.6191 32.1406L18.6738 33.7783C18.3977 34.2566 17.7859 34.4207 17.3076 34.1445C16.8297 33.8683 16.6663 33.2565 16.9424 32.7783L17.8906 31.1367H16C15.4477 31.1367 15 30.689 15 30.1367C15.0001 29.5845 15.4478 29.1367 16 29.1367H17.8848L16.9424 27.5049C16.6663 27.0267 16.8296 26.4149 17.3076 26.1387C17.7859 25.8626 18.3976 26.0267 18.6738 26.5049L19.6191 28.1416L20.5674 26.5Z" fill="#2B2A34"/>
<path d="M32.5674 26.5C32.8435 26.022 33.4544 25.858 33.9326 26.1338C34.4109 26.4099 34.575 27.0217 34.2988 27.5L33.3535 29.1367H35.25C35.8022 29.1367 36.2499 29.5845 36.25 30.1367C36.25 30.689 35.8023 31.1367 35.25 31.1367H33.3486L34.2988 32.7832C34.575 33.2615 34.4109 33.8733 33.9326 34.1494C33.4544 34.4253 32.8435 34.2614 32.5674 33.7832L31.6191 32.1406L30.6738 33.7783C30.3977 34.2566 29.7859 34.4207 29.3076 34.1445C28.8297 33.8683 28.6663 33.2565 28.9424 32.7783L29.8906 31.1367H28C27.4477 31.1367 27 30.689 27 30.1367C27.0001 29.5845 27.4478 29.1367 28 29.1367H29.8848L28.9424 27.5049C28.6663 27.0267 28.8296 26.4149 29.3076 26.1387C29.7859 25.8626 30.3976 26.0267 30.6738 26.5049L31.6191 28.1416L32.5674 26.5Z" fill="#2B2A34"/>
<path fill-rule="evenodd" clip-rule="evenodd" d="M17.4473 0C21.9664 5.09605e-05 25.9006 2.49889 27.9473 6.18945C28.8616 5.88261 29.8398 5.71387 30.8574 5.71387C35.9069 5.7139 40 9.80798 40 14.8574C39.9998 19.9067 35.9068 24 30.8574 24C30.7633 24 30.6696 23.995 30.5762 23.9922C30.48 23.9966 30.3834 24 30.2861 24H6.28613C2.81463 24 0 21.1854 0 17.7139C0.000208243 14.5225 2.37892 11.8878 5.45996 11.4834C5.7306 5.09566 10.9929 0 17.4473 0ZM17.4473 2C12.0696 2 7.68349 6.24631 7.45801 11.5684L7.38672 13.248L5.7207 13.4668C3.62153 13.7423 2.00021 15.5401 2 17.7139C2 20.0808 3.9192 22 6.28613 22H30.2861C30.3385 22 30.4001 21.998 30.4854 21.9941L30.5605 21.9912L30.6367 21.9932C30.7925 21.9979 30.8023 22 30.8574 22C34.8021 22 37.9999 18.8022 38 14.8574C38 10.9123 34.802 7.7139 30.8574 7.71387C30.0624 7.71387 29.2991 7.84596 28.584 8.08594L27.0059 8.61523L26.1982 7.15918C24.4895 4.07818 21.2099 2.00005 17.4473 2Z" fill="#2B2A34"/>
</svg>
