<svg width="40" height="35" viewBox="0 0 40 35" fill="none" xmlns="http://www.w3.org/2000/svg">
<path d="M14.5674 26.5C14.8435 26.022 15.4544 25.858 15.9326 26.1338C16.4109 26.4099 16.575 27.0217 16.2988 27.5L15.3535 29.1367H17.25C17.8022 29.1367 18.2499 29.5845 18.25 30.1367C18.25 30.689 17.8023 31.1367 17.25 31.1367H15.3486L16.2988 32.7832C16.575 33.2615 16.4109 33.8733 15.9326 34.1494C15.4544 34.4253 14.8435 34.2614 14.5674 33.7832L13.6191 32.1406L12.6738 33.7783C12.3977 34.2566 11.7859 34.4207 11.3076 34.1445C10.8297 33.8683 10.6663 33.2565 10.9424 32.7783L11.8906 31.1367H10C9.44772 31.1367 9 30.689 9 30.1367C9.00007 29.5845 9.44776 29.1367 10 29.1367H11.8848L10.9424 27.5049C10.6663 27.0267 10.8296 26.4149 11.3076 26.1387C11.7859 25.8626 12.3976 26.0267 12.6738 26.5049L13.6191 28.1416L14.5674 26.5Z" fill="#2B2A34"/>
<path d="M26.5674 26.5C26.8435 26.022 27.4544 25.858 27.9326 26.1338C28.4109 26.4099 28.575 27.0217 28.2988 27.5L27.3535 29.1367H29.25C29.8022 29.1367 30.2499 29.5845 30.25 30.1367C30.25 30.689 29.8023 31.1367 29.25 31.1367H27.3486L28.2988 32.7832C28.575 33.2615 28.4109 33.8733 27.9326 34.1494C27.4544 34.4253 26.8435 34.2614 26.5674 33.7832L25.6191 32.1406L24.6738 33.7783C24.3977 34.2566 23.7859 34.4207 23.3076 34.1445C22.8297 33.8683 22.6663 33.2565 22.9424 32.7783L23.8906 31.1367H22C21.4477 31.1367 21 30.689 21 30.1367C21.0001 29.5845 21.4478 29.1367 22 29.1367H23.8848L22.9424 27.5049C22.6663 27.0267 22.8296 26.4149 23.3076 26.1387C23.7859 25.8626 24.3976 26.0267 24.6738 26.5049L25.6191 28.1416L26.5674 26.5Z" fill="#2B2A34"/>
<path fill-rule="evenodd" clip-rule="evenodd" d="M17.4473 0C21.9664 5.09605e-05 25.9006 2.49889 27.9473 6.18945C28.8616 5.88261 29.8398 5.71387 30.8574 5.71387C35.9069 5.7139 40 9.80798 40 14.8574C39.9998 19.9067 35.9068 24 30.8574 24C30.7633 24 30.6696 23.995 30.5762 23.9922C30.48 23.9966 30.3834 24 30.2861 24H6.28613C2.81463 24 0 21.1854 0 17.7139C0.000208243 14.5225 2.37892 11.8878 5.45996 11.4834C5.7306 5.09566 10.9929 0 17.4473 0ZM17.4473 2C12.0696 2 7.68349 6.24631 7.45801 11.5684L7.38672 13.248L5.7207 13.4668C3.62153 13.7423 2.00021 15.5401 2 17.7139C2 20.0808 3.9192 22 6.28613 22H30.2861C30.3385 22 30.4001 21.998 30.4854 21.9941L30.5605 21.9912L30.6367 21.9932C30.7925 21.9979 30.8023 22 30.8574 22C34.8021 22 37.9999 18.8022 38 14.8574C38 10.9123 34.802 7.7139 30.8574 7.71387C30.0624 7.71387 29.2991 7.84596 28.584 8.08594L27.0059 8.61523L26.1982 7.15918C24.4895 4.07818 21.2099 2.00005 17.4473 2Z" fill="#2B2A34"/>
</svg>
