<svg width="43" height="35" viewBox="0 0 43 35" fill="none" xmlns="http://www.w3.org/2000/svg">
<path d="M5.56738 26.5C5.84348 26.022 6.45444 25.858 6.93262 26.1338C7.4109 26.4099 7.57496 27.0217 7.29883 27.5L6.35352 29.1367H8.25C8.80223 29.1367 9.24993 29.5845 9.25 30.1367C9.25 30.689 8.80227 31.1367 8.25 31.1367H6.34863L7.29883 32.7832C7.57497 33.2615 7.41091 33.8733 6.93262 34.1494C6.45437 34.4253 5.84347 34.2614 5.56738 33.7832L4.61914 32.1406L3.67383 33.7783C3.39769 34.2566 2.78591 34.4207 2.30762 34.1445C1.82967 33.8683 1.66633 33.2565 1.94238 32.7783L2.89062 31.1367H1C0.447715 31.1367 2.41411e-08 30.689 0 30.1367C6.59418e-05 29.5845 0.447756 29.1367 1 29.1367H2.88477L1.94238 27.5049C1.66631 27.0267 1.82955 26.4149 2.30762 26.1387C2.78586 25.8626 3.39764 26.0267 3.67383 26.5049L4.61914 28.1416L5.56738 26.5Z" fill="#2B2A34"/>
<path d="M16.5674 26.5C16.8435 26.022 17.4544 25.858 17.9326 26.1338C18.4109 26.4099 18.575 27.0217 18.2988 27.5L17.3535 29.1367H19.25C19.8022 29.1367 20.2499 29.5845 20.25 30.1367C20.25 30.689 19.8023 31.1367 19.25 31.1367H17.3486L18.2988 32.7832C18.575 33.2615 18.4109 33.8733 17.9326 34.1494C17.4544 34.4253 16.8435 34.2614 16.5674 33.7832L15.6191 32.1406L14.6738 33.7783C14.3977 34.2566 13.7859 34.4207 13.3076 34.1445C12.8297 33.8683 12.6663 33.2565 12.9424 32.7783L13.8906 31.1367H12C11.4477 31.1367 11 30.689 11 30.1367C11.0001 29.5845 11.4478 29.1367 12 29.1367H13.8848L12.9424 27.5049C12.6663 27.0267 12.8296 26.4149 13.3076 26.1387C13.7859 25.8626 14.3976 26.0267 14.6738 26.5049L15.6191 28.1416L16.5674 26.5Z" fill="#2B2A34"/>
<path d="M27.5674 26.5C27.8435 26.022 28.4544 25.858 28.9326 26.1338C29.4109 26.4099 29.575 27.0217 29.2988 27.5L28.3535 29.1367H30.25C30.8022 29.1367 31.2499 29.5845 31.25 30.1367C31.25 30.689 30.8023 31.1367 30.25 31.1367H28.3486L29.2988 32.7832C29.575 33.2615 29.4109 33.8733 28.9326 34.1494C28.4544 34.4253 27.8435 34.2614 27.5674 33.7832L26.6191 32.1406L25.6738 33.7783C25.3977 34.2566 24.7859 34.4207 24.3076 34.1445C23.8297 33.8683 23.6663 33.2565 23.9424 32.7783L24.8906 31.1367H23C22.4477 31.1367 22 30.689 22 30.1367C22.0001 29.5845 22.4478 29.1367 23 29.1367H24.8848L23.9424 27.5049C23.6663 27.0267 23.8296 26.4149 24.3076 26.1387C24.7859 25.8626 25.3976 26.0267 25.6738 26.5049L26.6191 28.1416L27.5674 26.5Z" fill="#2B2A34"/>
<path d="M38.5674 26.5C38.8435 26.022 39.4544 25.858 39.9326 26.1338C40.4109 26.4099 40.575 27.0217 40.2988 27.5L39.3535 29.1367H41.25C41.8022 29.1367 42.2499 29.5845 42.25 30.1367C42.25 30.689 41.8023 31.1367 41.25 31.1367H39.3486L40.2988 32.7832C40.575 33.2615 40.4109 33.8733 39.9326 34.1494C39.4544 34.4253 38.8435 34.2614 38.5674 33.7832L37.6191 32.1406L36.6738 33.7783C36.3977 34.2566 35.7859 34.4207 35.3076 34.1445C34.8297 33.8683 34.6663 33.2565 34.9424 32.7783L35.8906 31.1367H34C33.4477 31.1367 33 30.689 33 30.1367C33.0001 29.5845 33.4478 29.1367 34 29.1367H35.8848L34.9424 27.5049C34.6663 27.0267 34.8296 26.4149 35.3076 26.1387C35.7859 25.8626 36.3976 26.0267 36.6738 26.5049L37.6191 28.1416L38.5674 26.5Z" fill="#2B2A34"/>
<path fill-rule="evenodd" clip-rule="evenodd" d="M18.4473 0C22.9664 5.09605e-05 26.9006 2.49889 28.9473 6.18945C29.8616 5.88261 30.8398 5.71387 31.8574 5.71387C36.9069 5.7139 41 9.80798 41 14.8574C40.9998 19.9067 36.9068 24 31.8574 24C31.7633 24 31.6696 23.995 31.5762 23.9922C31.48 23.9966 31.3834 24 31.2861 24H7.28613C3.81463 24 1 21.1854 1 17.7139C1.00021 14.5225 3.37892 11.8878 6.45996 11.4834C6.7306 5.09566 11.9929 0 18.4473 0ZM18.4473 2C13.0696 2 8.68349 6.24631 8.45801 11.5684L8.38672 13.248L6.7207 13.4668C4.62153 13.7423 3.00021 15.5401 3 17.7139C3 20.0808 4.9192 22 7.28613 22H31.2861C31.3385 22 31.4001 21.998 31.4854 21.9941L31.5605 21.9912L31.6367 21.9932C31.7925 21.9979 31.8023 22 31.8574 22C35.8021 22 38.9999 18.8022 39 14.8574C39 10.9123 35.802 7.7139 31.8574 7.71387C31.0624 7.71387 30.2991 7.84596 29.584 8.08594L28.0059 8.61523L27.1982 7.15918C25.4895 4.07818 22.2099 2.00005 18.4473 2Z" fill="#2B2A34"/>
</svg>
