<svg width="40" height="37" viewBox="0 0 40 37" fill="none" xmlns="http://www.w3.org/2000/svg">
<path d="M4.56836 26.6377C4.76853 26.123 5.34757 25.8682 5.8623 26.0684C6.37704 26.2685 6.63181 26.8476 6.43164 27.3623L2.93164 36.3623C2.73147 36.877 2.15243 37.1318 1.6377 36.9316C1.12296 36.7315 0.868186 36.1524 1.06836 35.6377L4.56836 26.6377Z" fill="#2B2A34"/>
<path d="M7.05176 32.6836C7.2265 32.1599 7.79262 31.8773 8.31641 32.0518C8.84016 32.2265 9.12286 32.7926 8.94824 33.3164L7.94824 36.3164C7.77346 36.8401 7.20742 37.1229 6.68359 36.9482C6.15998 36.7734 5.87721 36.2074 6.05176 35.6836L7.05176 32.6836Z" fill="#2B2A34"/>
<path d="M12.0518 32.6836C12.2265 32.1599 12.7926 31.8773 13.3164 32.0518C13.8402 32.2265 14.1229 32.7926 13.9482 33.3164L12.9482 36.3164C12.7735 36.8401 12.2074 37.1229 11.6836 36.9482C11.16 36.7734 10.8772 36.2074 11.0518 35.6836L12.0518 32.6836Z" fill="#2B2A34"/>
<path d="M24.0518 26.6836C24.2265 26.1598 24.7926 25.8771 25.3164 26.0518C25.8402 26.2265 26.1229 26.7926 25.9482 27.3164L22.9482 36.3164C22.7735 36.8402 22.2074 37.1229 21.6836 36.9482C21.1598 36.7735 20.8771 36.2074 21.0518 35.6836L24.0518 26.6836Z" fill="#2B2A34"/>
<path d="M27.0518 32.6836C27.2265 32.1598 27.7926 31.8771 28.3164 32.0518C28.8402 32.2265 29.1229 32.7926 28.9482 33.3164L27.9482 36.3164C27.7735 36.8402 27.2074 37.1229 26.6836 36.9482C26.1598 36.7735 25.8771 36.2074 26.0518 35.6836L27.0518 32.6836Z" fill="#2B2A34"/>
<path d="M34.0518 26.6836C34.2265 26.1598 34.7926 25.8771 35.3164 26.0518C35.8402 26.2265 36.1229 26.7926 35.9482 27.3164L32.9482 36.3164C32.7735 36.8402 32.2074 37.1229 31.6836 36.9482C31.1598 36.7735 30.8771 36.2074 31.0518 35.6836L34.0518 26.6836Z" fill="#2B2A34"/>
<path fill-rule="evenodd" clip-rule="evenodd" d="M17.4473 0C21.9664 5.09605e-05 25.9006 2.49889 27.9473 6.18945C28.8616 5.88261 29.8398 5.71387 30.8574 5.71387C35.9069 5.7139 40 9.80798 40 14.8574C39.9998 19.9067 35.9068 24 30.8574 24C30.7633 24 30.6696 23.995 30.5762 23.9922C30.48 23.9966 30.3834 24 30.2861 24H24.0693L18.5391 33.041C18.0565 33.8296 17.0941 34.2014 16.2002 33.8916L16.1719 33.8818L16.1436 33.8701C16.0726 33.8406 15.9569 33.7942 15.8447 33.7295C15.7342 33.6657 15.6362 33.5887 15.5732 33.541L15.5469 33.5215L15.5215 33.5C14.9962 33.0445 14.7455 32.3526 14.8359 31.6729L15.6611 25.457L15.666 25.415H12.998C12.0714 25.4149 11.3518 24.7964 11.0996 24H6.28613C2.81463 24 0 21.1854 0 17.7139C0.000208243 14.5225 2.37892 11.8878 5.45996 11.4834C5.7306 5.09566 10.9929 0 17.4473 0ZM14.3838 14.0264L13.001 23.3662C12.999 23.3802 12.9999 23.3903 13.002 23.3975C13.004 23.4047 13.0076 23.4107 13.0107 23.415H17.9395L17.6445 25.7158L17.6436 25.7207L16.8184 31.9365C16.8166 31.9494 16.8184 31.9623 16.8223 31.9727C16.8239 31.977 16.8265 31.98 16.8281 31.9824C16.8313 31.9848 16.8342 31.9872 16.8369 31.9893L23.9893 20.2988C23.9945 20.2903 23.9969 20.2842 23.998 20.2803C23.9992 20.2762 23.9999 20.2721 24 20.2676C24.0001 20.2572 23.9976 20.2436 23.9912 20.2314C23.9903 20.2297 23.9883 20.2266 23.9883 20.2266H18.2969L19.291 14.0498C19.2932 14.0358 19.292 14.0258 19.29 14.0186C19.2879 14.0108 19.2837 14.0045 19.2803 14H14.3955C14.3922 14.0042 14.3859 14.012 14.3838 14.0264ZM17.4473 2C12.0696 2 7.68349 6.24631 7.45801 11.5684L7.38672 13.248L5.7207 13.4668C3.62153 13.7423 2.00021 15.5401 2 17.7139C2 20.0808 3.9192 22 6.28613 22H11.1816L12.4062 13.7334C12.5497 12.7655 13.3654 12.0001 14.3818 12H19.2939C20.572 12 21.4581 13.1731 21.2656 14.3682L20.6445 18.2266H24.001C25.6377 18.2268 26.4891 20.045 25.6953 21.3428L25.293 22H30.2861C30.3385 22 30.4001 21.998 30.4854 21.9941L30.5605 21.9912L30.6367 21.9932C30.7925 21.9979 30.8023 22 30.8574 22C34.8021 22 37.9999 18.8022 38 14.8574C38 10.9123 34.802 7.7139 30.8574 7.71387C30.0624 7.71387 29.2991 7.84596 28.584 8.08594L27.0059 8.61523L26.1982 7.15918C24.4895 4.07818 21.2099 2.00005 17.4473 2Z" fill="#2B2A34"/>
<path d="M9.05176 26.6836C9.2265 26.1599 9.79262 25.8773 10.3164 26.0518C10.8402 26.2265 11.1229 26.7926 10.9482 27.3164L9.94824 30.3164C9.77346 30.8401 9.20742 31.1229 8.68359 30.9482C8.15998 30.7734 7.87721 30.2074 8.05176 29.6836L9.05176 26.6836Z" fill="#2B2A34"/>
<path d="M29.0518 26.6836C29.2265 26.1598 29.7926 25.8771 30.3164 26.0518C30.8402 26.2265 31.1229 26.7926 30.9482 27.3164L29.9482 30.3164C29.7735 30.8402 29.2074 31.1229 28.6836 30.9482C28.1598 30.7735 27.8771 30.2074 28.0518 29.6836L29.0518 26.6836Z" fill="#2B2A34"/>
</svg>
