<svg width="15" height="15" viewBox="0 0 15 15" fill="none" xmlns="http://www.w3.org/2000/svg">
<path d="M9.25098 14.7939C8.6887 14.9285 8.10238 15 7.5 15C6.89762 15 6.3113 14.9285 5.74902 14.7939L5.98145 13.8223C6.46809 13.9387 6.97656 14 7.5 14C8.02344 14 8.53191 13.9387 9.01855 13.8223L9.25098 14.7939ZM1.95703 10.8965C2.49334 11.7697 3.23029 12.5067 4.10352 13.043L3.8418 13.4697L3.58008 13.8955C2.57285 13.2769 1.72307 12.4271 1.10449 11.4199L1.53027 11.1582L1.95703 10.8965ZM13.4697 11.1582L13.8955 11.4199C13.2769 12.4271 12.4271 13.2769 11.4199 13.8955L11.1582 13.4697L10.8965 13.043C11.7697 12.5067 12.5067 11.7697 13.043 10.8965L13.4697 11.1582ZM0 7.5C0 6.89762 0.0715357 6.3113 0.206055 5.74902L1.17773 5.98145C1.06131 6.46809 1 6.97656 1 7.5C1 8.02344 1.06131 8.53191 1.17773 9.01855L0.206055 9.25098C0.0715357 8.6887 0 8.10238 0 7.5ZM14 7.5C14 6.97656 13.9387 6.46809 13.8223 5.98145L14.7939 5.74902C14.9285 6.3113 15 6.89762 15 7.5C15 8.10238 14.9285 8.6887 14.7939 9.25098L13.8223 9.01855C13.9387 8.53191 14 8.02344 14 7.5ZM3.8418 1.53027L4.10352 1.95703C3.23029 2.49334 2.49334 3.23029 1.95703 4.10352L1.53027 3.8418L1.10449 3.58008C1.72307 2.57285 2.57285 1.72307 3.58008 1.10449L3.8418 1.53027ZM11.4199 1.10449C12.4271 1.72307 13.2769 2.57285 13.8955 3.58008L13.4697 3.8418L13.043 4.10352C12.5067 3.23029 11.7697 2.49334 10.8965 1.95703L11.1582 1.53027L11.4199 1.10449ZM7.5 0C8.10238 0 8.6887 0.0715357 9.25098 0.206055L9.01855 1.17773C8.53191 1.06131 8.02344 1 7.5 1C6.97656 1 6.46809 1.06131 5.98145 1.17773L5.74902 0.206055C6.3113 0.0715357 6.89762 0 7.5 0Z" fill="white"/>
</svg>
