<svg width="15" height="15" viewBox="0 0 15 15" fill="none" xmlns="http://www.w3.org/2000/svg">
<path d="M0.999999 7.5C1 11.0899 3.91015 14 7.5 14C11.0899 14 14 11.0899 14 7.5C14 3.91015 11.0898 1 7.5 1C3.91015 1 0.999999 3.91015 0.999999 7.5ZM-6.55671e-07 7.5C-1.01779e-06 3.35787 3.35786 1.01779e-06 7.5 6.55671e-07C11.6421 2.93554e-07 15 3.35786 15 7.5C15 11.6421 11.6421 15 7.5 15C3.35786 15 -2.93554e-07 11.6421 -6.55671e-07 7.5Z" fill="white"/>
<path d="M7.86841 14.5C4.00242 14.5 0.868408 11.366 0.868408 7.5C0.868408 3.63401 4.00241 0.5 7.86841 0.5V14.5Z" fill="white"/>
</svg>
