<svg width="15" height="15" viewBox="0 0 15 15" fill="none" xmlns="http://www.w3.org/2000/svg">
<path d="M0.999999 7.5C1 11.0899 3.91015 14 7.5 14C11.0899 14 14 11.0899 14 7.5C14 3.91015 11.0898 1 7.5 1C3.91015 1 0.999999 3.91015 0.999999 7.5ZM-6.55671e-07 7.5C-7.60077e-07 3.35787 3.35786 1.27549e-06 7.5 6.55671e-07C11.6421 2.93554e-07 15 3.35786 15 7.5C15 11.6421 11.6421 15 7.5 15C3.35786 15 -2.93554e-07 11.6421 -6.55671e-07 7.5Z" fill="white"/>
<path d="M7.48633 0.5C8.40249 0.5 9.27713 0.677033 10.0791 0.997071C7.09981 1.80107 4.90723 4.52244 4.90723 7.75586C4.9074 10.7049 6.7322 13.2261 9.31348 14.2568C8.73082 14.414 8.11866 14.5 7.48633 14.5C3.62034 14.5 0.486328 11.366 0.486328 7.5C0.486328 3.63401 3.62034 0.5 7.48633 0.5Z" fill="white"/>
</svg>
