<svg width="15" height="15" viewBox="0 0 15 15" fill="none" xmlns="http://www.w3.org/2000/svg">
<path d="M14 7.5C14 3.91015 11.0899 0.999998 7.5 0.999999C3.91015 0.999999 1 3.91015 1 7.5C1 11.0899 3.91015 14 7.5 14C11.0899 14 14 11.0898 14 7.5ZM15 7.5C15 11.6421 11.6421 15 7.5 15C3.35787 15 2.29328e-06 11.6421 1.31134e-06 7.5C5.87108e-07 3.35786 3.35786 -5.87108e-07 7.5 -1.31134e-06C11.6421 -1.77786e-06 15 3.35786 15 7.5Z" fill="white"/>
<path d="M5.68555 0.742751C8.26745 1.77334 10.0928 4.29507 10.0928 7.2447C10.0927 10.4782 7.89944 13.1978 4.91992 14.0015C2.33842 12.9708 0.513673 10.4489 0.513673 7.49959C0.513839 4.26638 2.70645 1.54677 5.68555 0.742751Z" fill="white"/>
</svg>
