<svg width="15" height="15" viewBox="0 0 15 15" fill="none" xmlns="http://www.w3.org/2000/svg">
<path d="M13.9863 7.5C13.9863 3.90969 11.0788 1 7.49316 1C3.90755 1 1 3.90969 1 7.5C1 11.0903 3.90755 14 7.49316 14C11.0788 14 13.9863 11.0903 13.9863 7.5ZM14.9863 7.5C14.9863 11.6417 11.632 15 7.49316 15C3.35434 15 2.57461e-07 11.6417 0 7.5C0 3.35833 3.35434 3.35327e-06 7.49316 0C11.632 0 14.9863 3.35833 14.9863 7.5Z" fill="white"/>
<path d="M7.50293 14.4966C6.58743 14.4965 5.71353 14.3193 4.91211 13.9995C7.8899 13.1959 10.0811 10.4764 10.0811 7.24463C10.0811 4.29665 8.25712 1.77681 5.67676 0.746581C6.2591 0.589454 6.87094 0.50346 7.50293 0.503417C11.3669 0.503418 14.4997 3.63563 14.5 7.49951C14.5 11.3636 11.367 14.4966 7.50293 14.4966Z" fill="white"/>
</svg>
