<svg width="15" height="15" viewBox="0 0 15 15" fill="none" xmlns="http://www.w3.org/2000/svg">
<path d="M0.999999 7.5C1 11.0899 3.91015 14 7.5 14C11.0899 14 14 11.0899 14 7.5C14 3.91015 11.0898 1 7.5 1C3.91015 1 0.999999 3.91015 0.999999 7.5ZM-6.55671e-07 7.5C-7.60077e-07 3.35787 3.35786 1.27549e-06 7.5 6.55671e-07C11.6421 2.93554e-07 15 3.35786 15 7.5C15 11.6421 11.6421 15 7.5 15C3.35786 15 -2.93554e-07 11.6421 -6.55671e-07 7.5Z" fill="white"/>
<path d="M9.31445 14.2572C6.73254 13.2267 4.90723 10.7049 4.90723 7.7553C4.90732 4.52175 7.10056 1.80225 10.0801 0.998459C12.6616 2.02924 14.4863 4.55107 14.4863 7.50041C14.4862 10.7336 12.2936 13.4532 9.31445 14.2572Z" fill="white"/>
</svg>
